<svg viewBox="0 0 35 35" fill="none" xmlns="http://www.w3.org/2000/svg">
<path d="M34.5964 32.0458L24.6868 22.1362C26.5663 19.8157 27.6977 16.8657 27.6977 13.6539C27.6977 6.20826 21.6401 0.150696 14.1945 0.150696C6.74891 0.150696 0.691406 6.20826 0.691406 13.6539C0.691406 21.0995 6.74898 27.1571 14.1946 27.1571C17.4064 27.1571 20.3564 26.0256 22.6769 24.1461L32.5865 34.0557C32.8641 34.3332 33.314 34.3332 33.5916 34.0557L34.5965 33.0509C34.874 32.7733 34.874 32.3233 34.5964 32.0458ZM14.1946 24.3143C8.31612 24.3143 3.5342 19.5324 3.5342 13.6539C3.5342 7.77541 8.31612 2.99349 14.1946 2.99349C20.0731 2.99349 24.855 7.77541 24.855 13.6539C24.855 19.5324 20.0731 24.3143 14.1946 24.3143Z" fill="#414141"/>
</svg>
