<svg width="17" height="22" viewBox="0 0 17 22" fill="none" xmlns="http://www.w3.org/2000/svg">
<path d="M15.7596 15.4857C14.6452 15.2906 13.5816 14.9248 12.6047 14.4006C12.127 14.1384 11.4746 14.188 11.1087 14.4522L8.79174 15.6388C6.64014 13.9564 5.43402 12.239 4.59678 9.66465L6.44517 7.93393C6.90285 7.61308 7.14207 7.06923 7.06801 6.50668C6.90636 5.40414 6.92301 4.27991 7.11817 3.16508C7.25921 2.35974 6.71871 1.58984 5.91341 1.44887L2.57085 0.86371C1.76554 0.722732 0.995652 1.26323 0.854673 2.06853C-0.761314 11.2995 5.43378 20.1239 14.6647 21.7399C15.47 21.8808 16.2399 21.3403 16.3809 20.535L16.9644 17.2018C17.1053 16.3965 16.5648 15.6266 15.7596 15.4857Z" fill="white"/>
</svg>
