<svg width="36" height="37" viewBox="0 0 36 37" fill="none" xmlns="http://www.w3.org/2000/svg">
<path d="M30.7567 23.6276C28.8245 21.6954 26.5247 20.2651 24.0154 19.3992C26.7029 17.5483 28.4685 14.4505 28.4685 10.9477C28.4685 5.29258 23.8677 0.691772 18.2126 0.691772C12.5575 0.691772 7.95669 5.29258 7.95669 10.9477C7.95669 14.4505 9.7223 17.5483 12.4098 19.3992C9.9006 20.2651 7.60079 21.6954 5.66859 23.6276C2.31796 26.9783 0.472656 31.4331 0.472656 36.1717H3.24452C3.24452 27.9182 9.95916 21.2036 18.2126 21.2036C26.466 21.2036 33.1807 27.9182 33.1807 36.1717H35.9525C35.9525 31.4331 34.1072 26.9783 30.7567 23.6276ZM18.2126 18.4317C14.0859 18.4317 10.7286 15.0744 10.7286 10.9477C10.7286 6.82092 14.0859 3.46364 18.2126 3.46364C22.3393 3.46364 25.6966 6.82092 25.6966 10.9477C25.6966 15.0744 22.3393 18.4317 18.2126 18.4317Z" fill="white"/>
</svg>
